# xmcd
#
# Track frame offsets: 
#        150
#        11409
#        20666
#        30480
#        41187
#        51161
#        61892
#        74236
#        85564
#        96999
#        107427
#        118315
#        129550
#        141260
#        151033
#        160846
#        171752
#        183625
#        194042
#        206099
#        216891
#        227002
#        237305
#        248267
#        259987
#        271259
#        281669
#        291487
#        302459
#        313840
#
# Disc length: 4349 seconds
#
# Revision: 0
# Processed by: cddbd v1.5.2PL0 Copyright (c) Steve Scherf et al.
# Submitted via: ExactAudioCopyFreeDBPlugin 1.0
#
DISCID=be10fb1e
DTITLE=Hank Locklin - Fourteen Karat Gold: Classic Recordings 1951-195
DTITLE=7
DYEAR=2017
DGENRE=Country
TTITLE0=Fourteen Karat Gold
TTITLE1=You Never Can Tell
TTITLE2=A Good Woman's Love
TTITLE3=I Can't Run Away
TTITLE4=Your Heart Is An Island
TTITLE5=Baby You Can Count Me In
TTITLE6=Tomorrow's Just Another Day To Cry
TTITLE7=I'm Going To Copyright Your Kisses
TTITLE8=By The Sweat of My Brow
TTITLE9=I'm Tired of Bummin' Around
TTITLE10=She's Better Than Most
TTITLE11=Seven Or Eleven
TTITLE12=Golden Wristwatch
TTITLE13=How Much
TTITLE14=I'm a Fool
TTITLE15=Why Baby Why
TTITLE16=Love Or Spite
TTITLE17=I Like To Play With Your Kisses
TTITLE18=Whispering Scandal
TTITLE19=Shadows
TTITLE20=Lessons In Love
TTITLE21=I'll Always Be Standing By
TTITLE22=These Ruins Belong To You
TTITLE23=Queen of Hearts
TTITLE24=Send Me The Pillow That You Dream On
TTITLE25=Why Don't You Haul Off and Love Me
TTITLE26=Geisha Girl
TTITLE27=Stumpy Joe
TTITLE28=Down Texas Way
TTITLE29=Send Me The Pillow That You Dream On #2
EXTD=
EXTT0=
EXTT1=
EXTT2=
EXTT3=
EXTT4=
EXTT5=
EXTT6=
EXTT7=
EXTT8=
EXTT9=
EXTT10=
EXTT11=
EXTT12=
EXTT13=
EXTT14=
EXTT15=
EXTT16=
EXTT17=
EXTT18=
EXTT19=
EXTT20=
EXTT21=
EXTT22=
EXTT23=
EXTT24=
EXTT25=
EXTT26=
EXTT27=
EXTT28=
EXTT29=
PLAYORDER=
